<svg xmlns="http://www.w3.org/2000/svg" xmlns:xlink="http://www.w3.org/1999/xlink" viewBox="0 0 307.38 100"><defs><linearGradient id="New_Gradient_Swatch_1" x1="-6.48" y1="20.67" x2="300.55" y2="63.83" gradientUnits="userSpaceOnUse"><stop offset="0" stop-color="red"/><stop offset="0" stop-color="#fff"/><stop offset="0" stop-color="red"/><stop offset="0.14" stop-color="#f7931e"/><stop offset="0.29" stop-color="#ff0"/><stop offset="0.43" stop-color="#006837"/><stop offset="0.57" stop-color="aqua"/><stop offset="0.71" stop-color="blue"/><stop offset="0.86" stop-color="#662d91"/><stop offset="1" stop-color="#f0f"/></linearGradient><linearGradient id="New_Gradient_Swatch_1-2" x1="-8.85" y1="53.27" x2="301.72" y2="96.91" xlink:href="#New_Gradient_Swatch_1"/><linearGradient id="New_Gradient_Swatch_1-3" x1="-3.28" y1="33.8" x2="295.78" y2="75.83" xlink:href="#New_Gradient_Swatch_1"/><linearGradient id="New_Gradient_Swatch_1-4" x1="-4.09" y1="13.79" x2="306.76" y2="57.47" xlink:href="#New_Gradient_Swatch_1"/><linearGradient id="New_Gradient_Swatch_1-5" x1="-2.84" y1="34.24" x2="294.16" y2="75.98" xlink:href="#New_Gradient_Swatch_1"/><linearGradient id="New_Gradient_Swatch_1-6" x1="0.63" y1="20.79" x2="297.23" y2="62.47" xlink:href="#New_Gradient_Swatch_1"/><linearGradient id="New_Gradient_Swatch_1-7" x1="-4.56" y1="41.15" x2="294.35" y2="83.16" xlink:href="#New_Gradient_Swatch_1"/><linearGradient id="New_Gradient_Swatch_1-8" x1="-6.07" y1="-1.66" x2="306.7" y2="42.29" xlink:href="#New_Gradient_Swatch_1"/><linearGradient id="New_Gradient_Swatch_1-9" x1="-12.55" y1="39.35" x2="295.67" y2="82.67" xlink:href="#New_Gradient_Swatch_1"/><linearGradient id="New_Gradient_Swatch_1-10" x1="-65.72" y1="0.95" x2="311.11" y2="53.91" xlink:href="#New_Gradient_Swatch_1"/><linearGradient id="New_Gradient_Swatch_1-11" x1="-58.91" y1="5.51" x2="316.76" y2="58.31" xlink:href="#New_Gradient_Swatch_1"/><linearGradient id="New_Gradient_Swatch_1-12" x1="-3150.39" y1="-423.88" x2="390.51" y2="73.76" xlink:href="#New_Gradient_Swatch_1"/><linearGradient id="New_Gradient_Swatch_1-13" x1="-62.37" y1="15.75" x2="300.78" y2="66.79" xlink:href="#New_Gradient_Swatch_1"/><linearGradient id="New_Gradient_Swatch_1-14" x1="-4.45" y1="19.57" x2="302.75" y2="62.74" xlink:href="#New_Gradient_Swatch_1"/></defs><title>colorfa11y</title><path d="M208.68,41.87a7.63,7.63,0,0,0-4.33,2.28,15.1,15.1,0,0,0-4.75,10.41,6.41,6.41,0,0,0,.12,2.28,2.43,2.43,0,0,0,1.6,2.12,2.84,2.84,0,0,0,3-.69,7.84,7.84,0,0,0,1.81-2.63c1.88-4.22,2.32-8.76,3.38-13.16C209.64,41.77,209.18,41.8,208.68,41.87Z" transform="translate(0 0)" fill="url(#New_Gradient_Swatch_1)"/><path d="M52.91,61.86l-.09.16.1-.16Z" transform="translate(0 0)" fill="url(#New_Gradient_Swatch_1-2)"/><path d="M121.81,51.91a9.26,9.26,0,0,1-3.4-7.63c.17-1.71,0-1.87-1.48-1.43a5.08,5.08,0,0,0-3,2.33A11.65,11.65,0,0,0,113,55.91c1.46,3.56,5.45,4,8,.92a9.43,9.43,0,0,0,1.49-2.95A1.6,1.6,0,0,0,121.81,51.91Z" transform="translate(0 0)" fill="url(#New_Gradient_Swatch_1-3)"/><path d="M92,42.83c4.43-7.25,7.92-14.84,9.1-23.17a14.44,14.44,0,0,0-.24-6.4c-.21-.65-.46-1.39-1.3-1.43s-1.08.63-1.45,1.15A19,19,0,0,0,96,17.54,88.08,88.08,0,0,0,92.35,32,85.69,85.69,0,0,0,91.09,43.7C91.77,43.57,91.84,43.13,92,42.83Z" transform="translate(0 0)" fill="url(#New_Gradient_Swatch_1-4)"/><path d="M82.49,46.25h0l0,0Z" transform="translate(0 0)" fill="url(#New_Gradient_Swatch_1-5)"/><path d="M192,47.72l-.12-.11.11.13Z" transform="translate(0 0)" fill="url(#New_Gradient_Swatch_1-6)"/><path d="M68.48,52.22a9.33,9.33,0,0,1-3.61-8.78c.08-.69-.19-.82-.85-.74a4.9,4.9,0,0,0-3,1.58c-2.1,2.11-2.26,4.8-2.57,7.2a11.42,11.42,0,0,0,.88,4.42,4.36,4.36,0,0,0,5.72,2.63c1.9-.69,4-3.62,3.91-5.47A1.11,1.11,0,0,0,68.48,52.22Z" transform="translate(0 0)" fill="url(#New_Gradient_Swatch_1-7)"/><path d="M187.52,23.61a21.5,21.5,0,0,0,1.42-9.25c-.08-1,.05-2.3-1.24-2.48-1.11-.15-1.57,1.09-2,1.9a40,40,0,0,0-3.43,8.36A110.28,110.28,0,0,0,178.58,37c0,.34.06.68.08,1A40.51,40.51,0,0,0,187.52,23.61Z" transform="translate(0 0)" fill="url(#New_Gradient_Swatch_1-8)"/><path d="M286.76,74.1a29.05,29.05,0,0,0-6.84,7.68,8,8,0,0,0-1.34,4.77,1.89,1.89,0,0,0,1.16,1.73,1.7,1.7,0,0,0,1.79-.54,9.89,9.89,0,0,0,1.23-1.28c2.76-3.89,3.86-8.33,5.05-12.77A1.08,1.08,0,0,0,286.76,74.1Z" transform="translate(0 0)" fill="url(#New_Gradient_Swatch_1-9)"/><path d="M259.59,68.58a10,10,0,0,1-1.33-.09,6.38,6.38,0,0,1-5.9-6.61,34.64,34.64,0,0,1,.43-4.05c.09-.62.18-1.23.25-1.85.53-4.58,1.25-9.19,2-13.65.11-.73.23-1.45.34-2.18l-.5.12a9.08,9.08,0,0,1-2.21.29,5.22,5.22,0,0,1-5-3.21,6.49,6.49,0,0,1,2.72-8.24A28.4,28.4,0,0,1,258,26.54l1.27-.3a21.59,21.59,0,0,1,5.15-.79,12.55,12.55,0,0,1,1.64.11,5.72,5.72,0,0,1,5.34,5.23,11.75,11.75,0,0,1-.37,4.29c-.08.38-.17.75-.23,1.13-.46,2.68-.86,5.44-1.24,8.1-.27,1.81-.53,3.63-.82,5.44-.24,1.54-.43,3.14-.61,4.68a71.57,71.57,0,0,1-1.52,9.27c-.77,3-3.44,4.88-7,4.88Z" transform="translate(0 0)" fill="url(#New_Gradient_Swatch_1-10)"/><path d="M264.37,28a9.32,9.32,0,0,1,1.29.09,3.28,3.28,0,0,1,3.22,3.08,15.64,15.64,0,0,1-.59,4.67c-.77,4.52-1.36,9.06-2.07,13.58s-.94,9.2-2.09,13.71c-.49,1.94-2.23,3-4.54,3a7.43,7.43,0,0,1-1-.07,3.88,3.88,0,0,1-3.7-4.05c.06-1.9.44-3.79.66-5.69.72-6.25,1.79-12.46,2.73-18.68a5.43,5.43,0,0,0,0-.83c-1.4.38-2.7.77-4,1.08a6.86,6.86,0,0,1-1.63.22,2.73,2.73,0,0,1-2.75-1.72,4,4,0,0,1,1.65-5,28.56,28.56,0,0,1,7.65-2.48,23,23,0,0,1,5.2-.87m0-5a24.07,24.07,0,0,0-5.73.86L258,24l-.64.15a30.7,30.7,0,0,0-8.3,2.83,9,9,0,0,0-3.79,11.44,7.66,7.66,0,0,0,7,4.69c-.64,4.13-1.3,8.38-1.79,12.64q-.11.88-.24,1.77a37.88,37.88,0,0,0-.45,4.33A8.81,8.81,0,0,0,258,71a13,13,0,0,0,1.64.11c4.65,0,8.34-2.66,9.39-6.77a73.37,73.37,0,0,0,1.58-9.59c.19-1.59.37-3.09.6-4.58.29-1.83.55-3.65.82-5.48.39-2.65.78-5.38,1.24-8,0-.34.13-.67.2-1a14,14,0,0,0,.41-5.17,8.2,8.2,0,0,0-7.47-7.36,14.57,14.57,0,0,0-2-.14Z" transform="translate(0 0)" fill="#fff"/><path d="M233.61,68.57a10.56,10.56,0,0,1-1.1-.06c-3.78-.36-6.28-3.1-6.09-6.68.17-2.94.57-5.81,1-8.59.45-3.17.94-6.33,1.43-9.49l.56-3.6-.67.15a10.09,10.09,0,0,1-2.19.28,5,5,0,0,1-4.24-2.14,6.46,6.46,0,0,1-.37-6.91,6.85,6.85,0,0,1,4.08-3.2,46,46,0,0,1,12-2.87c.34,0,.67,0,1,0a6.18,6.18,0,0,1,4.6,1.71,7.29,7.29,0,0,1,1.78,5.43v.19l-.31,1.77c-.23,1.35-.49,2.86-.71,4.38s-.49,3.31-.73,5c-.38,2.68-.78,5.46-1.23,8.2-.21,1.3-.36,2.6-.51,4a51.7,51.7,0,0,1-1.27,7.58c-.84,3.1-3.46,4.95-7,4.95Z" transform="translate(0 0)" fill="url(#New_Gradient_Swatch_1-11)"/><path d="M239,27.92c2.65,0,3.93,1.45,3.88,4.6-.28,1.68-.67,3.84-1,6-.66,4.38-1.23,8.78-1.94,13.15-.62,3.76-.72,7.59-1.73,11.29-.56,2-2.18,3.11-4.59,3.11a8.43,8.43,0,0,1-.86,0c-2.34-.22-4-1.76-3.83-4,.16-2.81.55-5.6.94-8.38.62-4.39,1.32-8.77,2-13.14.14-1,.28-1.89.45-2.82.1-.55,0-.76-.32-.76a2.06,2.06,0,0,0-.58.13,31.46,31.46,0,0,1-3.24.86,8.05,8.05,0,0,1-1.66.22,2.5,2.5,0,0,1-2.2-1.08,4,4,0,0,1-.17-4.35,4.49,4.49,0,0,1,2.71-2A44.37,44.37,0,0,1,238.23,28l.76,0m0-5c-.39,0-.79,0-1.21,0a48.43,48.43,0,0,0-12.67,3,9.3,9.3,0,0,0-5.45,4.43,9,9,0,0,0,.57,9.47,7.44,7.44,0,0,0,6.16,3.19l0,.31c-.48,3.11-1,6.32-1.43,9.5-.38,2.69-.81,5.74-1,8.8-.28,4.91,3.23,8.83,8.35,9.31.45,0,.89.07,1.33.07,4.66,0,8.27-2.61,9.41-6.79a51.19,51.19,0,0,0,1.34-8c.15-1.35.3-2.62.5-3.85.45-2.75.85-5.53,1.23-8.22.24-1.66.48-3.33.73-5,.22-1.48.48-3,.71-4.31.09-.57.19-1.11.27-1.62l.06-.36v-.37a9.67,9.67,0,0,0-2.5-7.23A8.63,8.63,0,0,0,239,22.92Z" transform="translate(0 0)" fill="#fff"/><path d="M287.64,63.76a3.72,3.72,0,0,1-.21-1.3l-1.49-1.4L288,59.24a1,1,0,0,0,.15-.14l7.14-9.59-2.71,11.61c0,.1,0,.21,0,.31a5.84,5.84,0,0,1-.23,2.3l-2.31,6.77Z" transform="translate(0 0)" fill="url(#New_Gradient_Swatch_1-12)"/><path d="M290.12,60.63c-.15.65.14,1.5-.13,2.29h0c-.21-.59.23-1.28-.34-1.81a3.54,3.54,0,0,0,.47-.48m10.26-22.14L286.27,57.43l-4,3.59,2.8,2.61a4.93,4.93,0,0,0,.26,1l4.83,13.46,4.61-13.54a8.17,8.17,0,0,0,.36-3.19l5.29-22.85Z" transform="translate(0 0)" fill="#fff"/><path d="M279.37,97.5l-.79,0A9.84,9.84,0,0,1,268.9,88c-.22-6.14,3.09-10.68,5.6-13.56a56.66,56.66,0,0,1,6.16-6,9.07,9.07,0,0,1-5.79-3.7,13.6,13.6,0,0,1-2.47-8.46,53.53,53.53,0,0,1,3.06-17.67,8.31,8.31,0,0,1,8-5.79,11,11,0,0,1,2.73.36,4.21,4.21,0,0,1,3.07,5.24c-.22,1-.49,2.07-.75,3.1s-.57,2.28-.79,3.4c-.15.75-.32,1.51-.48,2.26-.32,1.46-.63,2.88-.81,4.28a32.71,32.71,0,0,0,2.75-5.86c.5-1.28.94-2.58,1.41-3.95s1-3,1.58-4.44a7.69,7.69,0,0,1,7.19-4.43,7.2,7.2,0,0,1,3.06.65,4.36,4.36,0,0,1,2.42,4.9q-.9,5.25-1.82,10.48l-.86,4.89c-.24,1.4-.47,2.8-.7,4.2-.49,3-1,6.08-1.63,9.12-1.78,8.56-3.63,16.22-8.21,23.36-3,4.71-7.14,7.1-12.21,7.1Z" transform="translate(0 0)" fill="url(#New_Gradient_Swatch_1-13)"/><path d="M299.32,35.3a4.81,4.81,0,0,1,2,.41,1.87,1.87,0,0,1,1,2.22c-.87,5.12-1.78,10.24-2.67,15.36-.77,4.41-1.41,8.85-2.32,13.24-1.62,7.8-3.41,15.59-7.87,22.52-2.29,3.56-5.46,6-10.1,6l-.67,0a7.34,7.34,0,0,1-7.3-7.07c-.16-4.64,2-8.38,5-11.82a68.07,68.07,0,0,1,11.89-10.35A3.23,3.23,0,0,0,290,62.92h0c.27-.79,0-1.64.13-2.29a3.54,3.54,0,0,1-.47.48A14,14,0,0,1,285.86,65a7.26,7.26,0,0,1-3.75,1.1,6.39,6.39,0,0,1-5.22-2.79,11.14,11.14,0,0,1-2-6.94,51.23,51.23,0,0,1,2.91-16.86,5.77,5.77,0,0,1,5.61-4.15,8.3,8.3,0,0,1,2.09.28,1.72,1.72,0,0,1,1.26,2.3c-.46,2.19-1.12,4.35-1.55,6.54-.65,3.32-1.61,6.6-1.48,10,0,.66-.09,1.42.73,1.74a1.31,1.31,0,0,0,.52.11,2.12,2.12,0,0,0,1.45-.88c2.49-2.57,3.8-5.74,5-8.92,1.08-2.77,1.9-5.62,3-8.38.68-1.74,2.83-2.85,4.86-2.85m-19.1,53.07a2,2,0,0,0,1.31-.63,9.89,9.89,0,0,0,1.23-1.28c2.76-3.89,3.86-8.33,5.05-12.77a.86.86,0,0,0-.22,0,1.16,1.16,0,0,0-.83.43,29.05,29.05,0,0,0-6.84,7.68,8,8,0,0,0-1.34,4.77,1.89,1.89,0,0,0,1.16,1.73,1.4,1.4,0,0,0,.48.09m19.1-58.07a10.67,10.67,0,0,0-8.23,3.82,6.63,6.63,0,0,0-4.31-3.33,13.11,13.11,0,0,0-3.36-.45,10.71,10.71,0,0,0-10.3,7.43,56,56,0,0,0-3.22,18.48,16,16,0,0,0,3,10,11.72,11.72,0,0,0,3.17,3c-1.17,1.11-2.32,2.29-3.4,3.54-2.79,3.2-6.47,8.27-6.22,15.29A12.29,12.29,0,0,0,278.46,100l.91,0c4.11,0,9.93-1.43,14.31-8.25,4.81-7.49,6.79-15.72,8.56-24.2.64-3.09,1.15-6.21,1.65-9.22.22-1.39.45-2.79.7-4.18l.9-5.15c.59-3.41,1.19-6.82,1.77-10.23a6.84,6.84,0,0,0-3.82-7.58,9.62,9.62,0,0,0-4.12-.89Z" transform="translate(0 0)" fill="#fff"/><path d="M176.39,88.52l-.63,0a8.75,8.75,0,0,1-7-4.14c-2.09-3.08-2.76-6.47-3.26-9.69A91.56,91.56,0,0,1,164.58,59c-.54.08-1.1.14-1.67.17q-.54,0-1.08,0c-6.58,0-8.91-3.62-9.7-6.66-.08-.28-.13-.56-.18-.83-.61,1.07-1.14,2.2-1.67,3.35A53.08,53.08,0,0,0,147.86,62l-.46,1.49a6.61,6.61,0,0,1-5.42,5,8.92,8.92,0,0,1-1.52.13,6.41,6.41,0,0,1-6.27-4.4,21,21,0,0,1-1.1-7.13l0-.53-.64.07a18.08,18.08,0,0,1-6.76,9.1,16,16,0,0,1-9.31,2.92,16.17,16.17,0,0,1-10.7-4,17.92,17.92,0,0,1-11.18,4h-.43a12.28,12.28,0,0,1-11.35-7,22.64,22.64,0,0,1-2-5.3c-1.93.28-2.2.48-2.59,1.64a15.36,15.36,0,0,1-11.69,10.2,19.75,19.75,0,0,1-4.17.47,14.78,14.78,0,0,1-10-3.7,58.27,58.27,0,0,1-14.13,3.32,56.12,56.12,0,0,1-6.23.37c-1,0-2,0-3-.1-8.62-.6-15.15-3.29-20-8.24A22.43,22.43,0,0,1,2.58,45.53,38.17,38.17,0,0,1,6.11,26.29c4.1-8.57,10.59-14.19,19.3-16.7a31,31,0,0,1,8.52-1.28A23.52,23.52,0,0,1,42.85,10,14,14,0,0,1,51.7,21.68a15,15,0,0,1-1.56,9.81,7.11,7.11,0,0,1-6.51,3.89A12.85,12.85,0,0,1,40.74,35c-2.68-.63-4.29-3-4.11-6,.06-.89.18-1.74.3-2.56.09-.63.18-1.26.23-1.89a3.27,3.27,0,0,0-.55-2.52,4.24,4.24,0,0,0-3.07-.9l-.78,0A13.51,13.51,0,0,0,21.81,28,23.1,23.1,0,0,0,19,47.71c1.19,3.86,4.3,6.29,9.25,7.21a30.47,30.47,0,0,0,5.52.5,43.27,43.27,0,0,0,13.25-2.33c0-.25,0-.49,0-.73A20.12,20.12,0,0,1,51.59,39,17.42,17.42,0,0,1,65,32.9a15.35,15.35,0,0,1,7,1.63,14.27,14.27,0,0,1,7.42,9.73,3.44,3.44,0,0,1,.46,0,37.76,37.76,0,0,1,.53-7,87.34,87.34,0,0,1,4.35-18A42.08,42.08,0,0,1,90.74,8a13.69,13.69,0,0,1,7.36-5,11.73,11.73,0,0,1,3-.41,8.7,8.7,0,0,1,8,4.87c2.3,4.31,2.09,8.82,1.65,12.27-1.46,11.45-7.15,21.32-12,28.63a74.41,74.41,0,0,1-4.42,6.14.71.71,0,0,0-.1.15h0s.06.2.34.73a1.14,1.14,0,0,0,1,.77l.49,0A5.3,5.3,0,0,0,99.24,55a14.12,14.12,0,0,0,1.54-1.24c-.74-8.14,3.27-15.85,10-19a18.9,18.9,0,0,1,8-1.87c7.1,0,12.47,4.33,14.26,11.39l1.06-.12a33.91,33.91,0,0,1,1.7-6,8.65,8.65,0,0,1,8.11-5.33,8.75,8.75,0,0,1,2.78.45,4,4,0,0,1,2.71,4.36,19.43,19.43,0,0,1,4.75-3.35A12.23,12.23,0,0,1,159.69,33c.48,0,1,0,1.47.07a6.14,6.14,0,0,1,5.43,5,98.8,98.8,0,0,1,4.27-15.77c1.79-4.89,4.2-10.53,8.52-15.21a14,14,0,0,1,5.82-4,11.84,11.84,0,0,1,3.73-.64c4.56,0,8.15,3.09,9.14,7.88,1.25,6,.25,12.17-3,18.84a62,62,0,0,1-11.92,16.16l1.42,0c.78,0,1.55,0,2.33,0,1.37,0,2.5,0,3.51-.15l.44-.76a24.34,24.34,0,0,1,2.85-4.2A20.6,20.6,0,0,1,209,32.8h.23a4.89,4.89,0,0,1,4.54,2.3h.64c2.44,0,4.26.7,5.4,2.09s1.57,3.53,1.05,6.28l-.12.61c-1,5.5-2,10.69-1.89,16a13.41,13.41,0,0,1-.23,3c-.71,3.55-2.74,5.29-6.39,5.47l-.8,0a7,7,0,0,1-5.5-2,9.77,9.77,0,0,1-6.25,2.08,13,13,0,0,1-1.63-.1A10.73,10.73,0,0,1,189.34,62a14.54,14.54,0,0,1-1.18-4h-.33c-.46,0-.91,0-1.35,0,.24,1.44.49,2.92.69,4.4.88,6.43,1.44,12.25-.61,18.28C184.88,85.58,181.08,88.52,176.39,88.52Zm25.86-31.9a.57.57,0,0,0,.33-.18,5.46,5.46,0,0,0,1.24-1.81A39.9,39.9,0,0,0,206.18,46a.94.94,0,0,1,0-.16l-.12.11a12.66,12.66,0,0,0-4,8.75v.25l-.06.24a8.12,8.12,0,0,0,.11.95l.05.36a1.06,1.06,0,0,0,0,.14ZM116.06,46.51a9.12,9.12,0,0,0-.72,8.45,1.92,1.92,0,0,0,1.72,1.41,2.73,2.73,0,0,0,2-1.13,5.79,5.79,0,0,0,.87-1.66A11.58,11.58,0,0,1,116.06,46.51ZM61,51.61a8.94,8.94,0,0,0,.68,3.31,2,2,0,0,0,1.77,1.41,2.39,2.39,0,0,0,.8-.15,5.29,5.29,0,0,0,2.13-2.49,11.74,11.74,0,0,1-3.93-7.21c-1,1.26-1.17,2.86-1.39,4.67ZM98.87,17c-.16.39-.3.8-.45,1.21l-.06.15a87,87,0,0,0-3.52,13.8,48.32,48.32,0,0,0,3.81-12.9A22.48,22.48,0,0,0,98.87,17Zm87.51.9a51.43,51.43,0,0,0-1.76,4.94c-.42,1.35-.8,2.63-1.14,3.85a42.82,42.82,0,0,0,1.69-4A22.9,22.9,0,0,0,186.38,17.94Z" transform="translate(0 0)" fill="url(#New_Gradient_Swatch_1-14)"/><path d="M101.09,5a6.25,6.25,0,0,1,5.74,3.55c1.82,3.43,1.84,7.11,1.37,10.78-1.29,10.11-6,19-11.56,27.57-1.34,2-2.74,4-4.27,5.94-1,1.29-.65,2.41,0,3.6a3.61,3.61,0,0,0,3,2.11l.71,0a7.79,7.79,0,0,0,4.6-1.53,15.78,15.78,0,0,0,2.67-2.35.11.11,0,0,1,0-.18c-1-6.75,1.86-14.39,8.47-17.51a16.4,16.4,0,0,1,7-1.63c5.73,0,10.72,3.5,12.06,10.51.15.79.38,1.14.95,1.14a2.87,2.87,0,0,0,.64-.1c1.27-.34,2.67-.17,3.87-.82a33.18,33.18,0,0,1,1.83-7.06,6.33,6.33,0,0,1,7.76-3.42c1.08.36,1.15,1.3,1,2.17-.5,2.28-1.11,4.54-1.62,6.82a9.62,9.62,0,0,0-.49,3.58,45.9,45.9,0,0,1,4.75-7.06,18.85,18.85,0,0,1,5.78-4.63,9.71,9.71,0,0,1,4.4-1c.42,0,.83,0,1.25.06a3.63,3.63,0,0,1,3.25,3.29,17.45,17.45,0,0,1-.61,5.52,10.37,10.37,0,0,0-.33,3c0,1.13.55,1.71,1.4,1.71a3.19,3.19,0,0,0,1.18-.27c.6-.25,1.16-.6,1.73-.9l.22-.33a100.14,100.14,0,0,1,5.44-24.41c1.88-5.13,4.13-10.16,8-14.37A11.51,11.51,0,0,1,186,5.52,9.32,9.32,0,0,1,188.93,5c3.35,0,5.92,2.17,6.69,5.89,1.26,6.06-.13,11.75-2.83,17.23-3.42,6.94-8.46,12.83-14.23,18.19A6.66,6.66,0,0,0,176.41,51c-.74,7.22-.25,14.42.09,21.62a22.45,22.45,0,0,0,.83,5.8c.12.37.2.8.68.85h.11c.48,0,.71-.39.85-.78a16.45,16.45,0,0,0,.82-6.49,100.08,100.08,0,0,0-2.6-18.11c-.62-2.75,2.28-6,5.3-6h0c1.44,0,2.89,0,4.33,0a31.46,31.46,0,0,0,5-.33l.11.13v0l-.12-.11A40.68,40.68,0,0,1,195.52,42,18.15,18.15,0,0,1,209,35.3h.16A2.43,2.43,0,0,1,211.85,37c.12.46.38.73.81.73a1.52,1.52,0,0,0,.44-.08.39.39,0,0,1,.15,0,10.91,10.91,0,0,1,1.11,0c3.53,0,4.69,1.71,4,5.41-1.07,5.67-2.19,11.35-2,17.15a10.88,10.88,0,0,1-.19,2.42c-.48,2.45-1.56,3.34-4.05,3.46-.24,0-.46,0-.68,0-2.63,0-3.91-.87-4.62-3.06-.07-.22-.12-.46-.17-.68l-.14,0a.41.41,0,0,0-.37.24,7.18,7.18,0,0,1-6.45,3.55A12.31,12.31,0,0,1,198.3,66a8.19,8.19,0,0,1-6.7-5,17.07,17.07,0,0,1-1.25-5.57c-.84.07-1.68.12-2.52.12a19.28,19.28,0,0,1-3.31-.27,2.74,2.74,0,0,0-.45,0c-.58,0-.53.33-.44.88.36,2.21.76,4.42,1.06,6.63.79,5.73,1.43,11.47-.5,17.14C182.86,83.74,180,86,176.4,86l-.5,0a6.28,6.28,0,0,1-5.07-3c-1.79-2.65-2.38-5.67-2.85-8.67a97.29,97.29,0,0,1-.86-17.56c0-.24.06-.47.09-.71h0a44.28,44.28,0,0,1-4.43.68l-.95,0c-3.7,0-6.36-1.24-7.29-4.79a13.24,13.24,0,0,1,.05-4.57c0-.5.3-1.12-.31-1.42a1,1,0,0,0-.41-.1c-.47,0-.83.4-1.15.72A24.11,24.11,0,0,0,148,54a71.09,71.09,0,0,0-3,8.67A4.17,4.17,0,0,1,141.58,66a7.44,7.44,0,0,1-1.12.09,3.94,3.94,0,0,1-3.94-2.8c-.91-2.37-.86-4.86-1-7.33,0-.76-.08-1.52-.12-2.28-1.37.17-2.73.43-4.11.5-1.17,0-1,.93-1.22,1.51a15.49,15.49,0,0,1-5.88,8,13.77,13.77,0,0,1-17.51-1.49c-.25-.26-.36-.78-.84-.78a.76.76,0,0,0-.28,0c-3.12,2.8-6.65,4.65-11.1,4.65h-.38a9.85,9.85,0,0,1-9.19-5.63A19.92,19.92,0,0,1,83,55.18a1.84,1.84,0,0,1-.12-.73c-.2-.59-.66-.77-1.32-.77a6.11,6.11,0,0,0-.9.08c-2.34.32-4,.65-4.94,3.35a12.9,12.9,0,0,1-9.86,8.57,17.19,17.19,0,0,1-3.63.41,12.42,12.42,0,0,1-9-3.71,5.32,5.32,0,0,0-.47-.36l.1-.16h0l-.09.16a55.75,55.75,0,0,1-14.9,3.71,54.28,54.28,0,0,1-6,.35c-.94,0-1.87,0-2.8-.09-7-.49-13.46-2.46-18.37-7.5A19.94,19.94,0,0,1,5.08,45.38a36,36,0,0,1,3.28-18C11.94,19.89,17.61,14.44,26.1,12a28.54,28.54,0,0,1,7.83-1.19,20.91,20.91,0,0,1,8,1.54A11.46,11.46,0,0,1,49.22,22,12.55,12.55,0,0,1,48,30.25a4.66,4.66,0,0,1-4.34,2.63,10.52,10.52,0,0,1-2.32-.31c-1.54-.36-2.29-1.63-2.18-3.39.09-1.47.4-2.93.52-4.4.36-4.34-2.26-6.13-6.11-6.13-.31,0-.63,0-.95,0a15.92,15.92,0,0,0-12.91,8,25.6,25.6,0,0,0-3,21.78c1.54,5,5.66,7.91,11.18,8.94a33.05,33.05,0,0,0,6,.54,46.88,46.88,0,0,0,14.53-2.61c.34-.11.68-.18,1-.27a5.26,5.26,0,0,0,.18-2.67,17.81,17.81,0,0,1,4-11.74A14.92,14.92,0,0,1,65,35.4a12.84,12.84,0,0,1,5.9,1.35,12,12,0,0,1,6.33,9c.17.87.39,1.29,1,1.29a2.35,2.35,0,0,0,.77-.16,4,4,0,0,1,1.14-.15h.14c1.05,0,1.82-.29,2.1-1.12a1.74,1.74,0,0,1,.12-.71h0a31.53,31.53,0,0,1,.46-7.26A83.78,83.78,0,0,1,87.1,20.11a38.8,38.8,0,0,1,5.6-10.6,11.32,11.32,0,0,1,6-4.19A9.47,9.47,0,0,1,101.09,5m-10,38.7c.68-.13.75-.57.94-.87,4.43-7.25,7.92-14.84,9.1-23.17a14.44,14.44,0,0,0-.24-6.4c-.21-.65-.46-1.39-1.3-1.43h-.06c-.7,0-1,.65-1.39,1.15A19,19,0,0,0,96,17.54,88.08,88.08,0,0,0,92.35,32,85.69,85.69,0,0,0,91.09,43.7M178.66,38a40.51,40.51,0,0,0,8.86-14.38,21.5,21.5,0,0,0,1.42-9.25c-.08-1,.05-2.3-1.24-2.48h-.18c-1,0-1.42,1.14-1.86,1.91a40,40,0,0,0-3.43,8.36A110.28,110.28,0,0,0,178.58,37c0,.34.06.68.08,1m23.59,21.13a3,3,0,0,0,2-.85,7.84,7.84,0,0,0,1.81-2.63c1.88-4.22,2.32-8.76,3.38-13.16.12-.52-.1-.64-.42-.64l-.38,0a7.63,7.63,0,0,0-4.33,2.28,15.1,15.1,0,0,0-4.75,10.41,6.41,6.41,0,0,0,.12,2.28,2.43,2.43,0,0,0,1.6,2.12,2.8,2.8,0,0,0,.93.16m-85.19-.25a5.15,5.15,0,0,0,3.92-2,9.43,9.43,0,0,0,1.49-2.95,1.6,1.6,0,0,0-.66-2,9.26,9.26,0,0,1-3.4-7.63c.12-1.2,0-1.64-.5-1.64a3.84,3.84,0,0,0-1,.21,5.08,5.08,0,0,0-3,2.33A11.65,11.65,0,0,0,113,55.91a4.37,4.37,0,0,0,4,3m-53.64,0a4.93,4.93,0,0,0,1.65-.3c1.9-.69,4-3.62,3.91-5.47a1.11,1.11,0,0,0-.5-.84,9.33,9.33,0,0,1-3.61-8.78c.06-.57-.11-.76-.56-.76l-.29,0a4.9,4.9,0,0,0-3,1.58c-2.1,2.11-2.26,4.8-2.57,7.2a11.42,11.42,0,0,0,.88,4.42,4.41,4.41,0,0,0,4.07,2.93M82.49,46.25h0l0,0v0M101.09,0h0a14,14,0,0,0-3.63.49A16.19,16.19,0,0,0,88.78,6.4a44.21,44.21,0,0,0-6.35,11.93,86.41,86.41,0,0,0-4.38,17.82,16.42,16.42,0,0,0-4.9-3.84A17.88,17.88,0,0,0,65,30.4a20,20,0,0,0-15.28,7,22.68,22.68,0,0,0-5.13,13.8,38.75,38.75,0,0,1-10.75,1.68,27.26,27.26,0,0,1-5.05-.46c-6-1.11-7-4.41-7.33-5.49A20.72,20.72,0,0,1,23.93,29.3a11,11,0,0,1,9-5.63l.6,0a4.46,4.46,0,0,1,1.14.12,4.07,4.07,0,0,1,0,.59c0,.53-.13,1.12-.22,1.74-.12.83-.25,1.78-.31,2.77-.26,4.23,2.16,7.67,6,8.57a15.38,15.38,0,0,0,3.45.44,9.57,9.57,0,0,0,8.68-5.15,17.33,17.33,0,0,0,1.86-11.4c-.91-6.51-4.5-11.22-10.38-13.62A26,26,0,0,0,33.93,5.8a33.28,33.28,0,0,0-9.21,1.39C15.29,9.91,8.27,16,3.85,25.21A41.12,41.12,0,0,0,.09,45.68,24.81,24.81,0,0,0,7.21,62c5.28,5.41,12.34,8.35,21.6,9,1,.07,2.08.11,3.15.11a58.49,58.49,0,0,0,6.5-.38,61.09,61.09,0,0,0,13.4-3,17.39,17.39,0,0,0,10.41,3.38A22.15,22.15,0,0,0,67,70.56a18.12,18.12,0,0,0,12.63-9.68c.26.62.55,1.24.87,1.85A14.79,14.79,0,0,0,94,71.07h.5a19.94,19.94,0,0,0,11.09-3.34,18.84,18.84,0,0,0,10.78,3.37,18.42,18.42,0,0,0,10.75-3.38,20.6,20.6,0,0,0,4.28-4c.13.46.29.93.47,1.39a8.87,8.87,0,0,0,8.6,6,11.77,11.77,0,0,0,1.93-.16,9.07,9.07,0,0,0,7.4-6.73c.16-.5.31-1,.46-1.5.53-1.76,1.05-3.45,1.66-5,1.79,2.2,4.81,4.08,9.92,4.08h.23a91.56,91.56,0,0,0,1,13.34c.55,3.49,1.28,7.2,3.66,10.7A11.27,11.27,0,0,0,175.61,91l.79,0c5.72,0,10.52-3.67,12.52-9.56a33.65,33.65,0,0,0,1.36-13.87A12.87,12.87,0,0,0,197.69,71a16.16,16.16,0,0,0,1.94.12,12.57,12.57,0,0,0,6.09-1.49,10.4,10.4,0,0,0,5.66,1.46l.92,0c4.78-.24,7.79-2.82,8.72-7.48A15.9,15.9,0,0,0,221.3,60c-.12-5.07.83-10.13,1.85-15.49l.11-.61c.66-3.49.13-6.29-1.57-8.35a8.8,8.8,0,0,0-6.74-3,7.82,7.82,0,0,0-5.77-2.3h-.3a23.71,23.71,0,0,0-4.61.6,22.68,22.68,0,0,0-11,6.16,54.14,54.14,0,0,0,4-6.73c3.55-7.2,4.61-13.89,3.25-20.46-1.25-6-5.8-9.87-11.59-9.87a14.21,14.21,0,0,0-4.52.77,16.31,16.31,0,0,0-6.86,4.64c-4.63,5-7.17,10.93-9,16A98.18,98.18,0,0,0,165.34,32a8.54,8.54,0,0,0-4-1.38c-.58-.05-1.15-.08-1.7-.08a14.87,14.87,0,0,0-6.63,1.5,21,21,0,0,0-2.25,1.29,6.42,6.42,0,0,0-3.31-2.43,11.32,11.32,0,0,0-14,6.34c-.12.3-.23.61-.34.92a16.53,16.53,0,0,0-14.35-7.77,21.41,21.41,0,0,0-8.81,2A54.08,54.08,0,0,0,113.16,20c.49-3.82.71-8.83-1.92-13.76A11.25,11.25,0,0,0,101.09,0Zm87.73,42.9.14-.15-.09.15Z" transform="translate(0 0)" fill="#fff"/></svg>